<svg width="79" height="18" viewBox="0 0 79 18" fill="none" xmlns="http://www.w3.org/2000/svg">
<path d="M19.944 17C19.856 14.624 19.834 12.226 19.834 8.728C19.834 5.12 19.856 2.656 19.922 0.5H13.608C13.102 2.018 12.2 4.636 11.276 7.276C11.034 8.024 10.77 8.97 10.506 9.916H10.44C10.198 8.97 9.934 7.98 9.714 7.254C8.702 4.57 7.866 2.04 7.36 0.5H0.473996C0.517996 2.656 0.539996 5.12 0.539996 8.728C0.539996 12.226 0.517996 14.624 0.451996 17H5.05C4.984 14.492 4.94 12.49 4.918 9.718C4.896 8.508 4.83 7.364 4.786 6.176L4.896 6.154C5.226 7.342 5.6 8.574 5.93 9.498L8.768 17H11.1L13.872 9.674C14.18 8.772 14.554 7.518 14.884 6.264L15.016 6.286C14.95 7.474 14.884 8.706 14.884 9.784C14.862 12.512 14.818 14.448 14.708 17H19.944Z" fill="white"/>
<path d="M66.2112 0.5C66.2552 3.096 66.2992 7.496 66.2992 10.004C66.2992 11.94 65.6172 12.776 63.8572 12.776C62.0312 12.776 61.2392 11.94 61.2392 10.004C61.2392 7.496 61.2612 3.096 61.3492 0.5H55.7392C55.7832 1.93 55.8272 3.338 55.8272 5.472C55.8272 6.792 55.7832 8.86 55.7832 10.4C55.7832 14.844 57.8072 17.308 63.7252 17.308C69.6432 17.308 71.6452 14.844 71.6452 10.4C71.6452 8.86 71.6012 6.792 71.6012 5.472C71.6012 3.338 71.6452 1.93 71.6892 0.5H66.2112Z" fill="white"/>
<path d="M76.2346 11.566C74.5846 11.566 73.6386 12.446 73.6386 14.338C73.6386 16.252 74.5626 17.198 76.2346 17.198C77.9286 17.198 78.8526 16.252 78.8526 14.338C78.8526 12.446 77.9066 11.566 76.2346 11.566Z" fill="white"/>
<path d="M39.5092 0.5C39.5752 2.634 39.5752 5.252 39.5752 8.75C39.5752 12.27 39.5752 14.778 39.5092 17H52.7532C52.7092 16.45 52.7092 15.57 52.7092 14.91C52.7092 14.14 52.7092 13.172 52.7532 12.644C50.2452 12.666 47.1652 12.688 44.9432 12.688V10.29C47.5392 10.29 50.3992 10.312 52.5332 10.356C52.5332 9.476 52.5332 7.562 52.5552 6.748C50.3992 6.814 47.5612 6.814 44.9432 6.814V4.504C47.1432 4.504 50.0692 4.526 52.7532 4.548C52.7092 4.064 52.7092 3.118 52.7092 2.436C52.7092 1.798 52.7312 0.962001 52.7532 0.5H39.5092Z" fill="#8D8D8D"/>
<path d="M23.2352 0.5C23.3012 2.634 23.3012 5.252 23.3012 8.75C23.3012 12.27 23.3012 14.778 23.2352 17H36.4792C36.4352 16.45 36.4352 15.57 36.4352 14.91C36.4352 14.14 36.4352 13.172 36.4792 12.644C33.9712 12.666 30.8912 12.688 28.6692 12.688V10.29C31.2652 10.29 34.1252 10.312 36.2592 10.356C36.2592 9.476 36.2592 7.562 36.2812 6.748C34.1252 6.814 31.2872 6.814 28.6692 6.814V4.504C30.8692 4.504 33.7952 4.526 36.4792 4.548C36.4352 4.064 36.4352 3.118 36.4352 2.436C36.4352 1.798 36.4572 0.962001 36.4792 0.5H23.2352Z" fill="#8D8D8D"/>
</svg>
