<svg width="79" height="17" viewBox="0 0 79 17" fill="none" xmlns="http://www.w3.org/2000/svg">
<path d="M19.944 16.5C19.856 14.124 19.834 11.726 19.834 8.228C19.834 4.62 19.856 2.156 19.922 0H13.608C13.102 1.518 12.2 4.136 11.276 6.776C11.034 7.524 10.77 8.47 10.506 9.416H10.44C10.198 8.47 9.934 7.48 9.714 6.754C8.702 4.07 7.866 1.54 7.36 0H0.473996C0.517996 2.156 0.539996 4.62 0.539996 8.228C0.539996 11.726 0.517996 14.124 0.451996 16.5H5.05C4.984 13.992 4.94 11.99 4.918 9.218C4.896 8.008 4.83 6.864 4.786 5.676L4.896 5.654C5.226 6.842 5.6 8.074 5.93 8.998L8.768 16.5H11.1L13.872 9.174C14.18 8.272 14.554 7.018 14.884 5.764L15.016 5.786C14.95 6.974 14.884 8.206 14.884 9.284C14.862 12.012 14.818 13.948 14.708 16.5H19.944Z" fill="#121212"/>
<path d="M66.2112 0C66.2552 2.596 66.2992 6.996 66.2992 9.504C66.2992 11.44 65.6172 12.276 63.8572 12.276C62.0312 12.276 61.2392 11.44 61.2392 9.504C61.2392 6.996 61.2612 2.596 61.3492 0H55.7392C55.7832 1.43 55.8272 2.838 55.8272 4.972C55.8272 6.292 55.7832 8.36 55.7832 9.9C55.7832 14.344 57.8072 16.808 63.7252 16.808C69.6432 16.808 71.6452 14.344 71.6452 9.9C71.6452 8.36 71.6012 6.292 71.6012 4.972C71.6012 2.838 71.6452 1.43 71.6892 0H66.2112Z" fill="#121212"/>
<path d="M76.2346 11.066C74.5846 11.066 73.6386 11.946 73.6386 13.838C73.6386 15.752 74.5626 16.698 76.2346 16.698C77.9286 16.698 78.8526 15.752 78.8526 13.838C78.8526 11.946 77.9066 11.066 76.2346 11.066Z" fill="#121212"/>
<path d="M39.5092 0C39.5752 2.134 39.5752 4.752 39.5752 8.25C39.5752 11.77 39.5752 14.278 39.5092 16.5H52.7532C52.7092 15.95 52.7092 15.07 52.7092 14.41C52.7092 13.64 52.7092 12.672 52.7532 12.144C50.2452 12.166 47.1652 12.188 44.9432 12.188V9.79C47.5392 9.79 50.3992 9.812 52.5332 9.856C52.5332 8.976 52.5332 7.062 52.5552 6.248C50.3992 6.314 47.5612 6.314 44.9432 6.314V4.004C47.1432 4.004 50.0692 4.026 52.7532 4.048C52.7092 3.564 52.7092 2.618 52.7092 1.936C52.7092 1.298 52.7312 0.462001 52.7532 0H39.5092Z" fill="#8D8D8D"/>
<path d="M23.2352 0C23.3012 2.134 23.3012 4.752 23.3012 8.25C23.3012 11.77 23.3012 14.278 23.2352 16.5H36.4792C36.4352 15.95 36.4352 15.07 36.4352 14.41C36.4352 13.64 36.4352 12.672 36.4792 12.144C33.9712 12.166 30.8912 12.188 28.6692 12.188V9.79C31.2652 9.79 34.1252 9.812 36.2592 9.856C36.2592 8.976 36.2592 7.062 36.2812 6.248C34.1252 6.314 31.2872 6.314 28.6692 6.314V4.004C30.8692 4.004 33.7952 4.026 36.4792 4.048C36.4352 3.564 36.4352 2.618 36.4352 1.936C36.4352 1.298 36.4572 0.462001 36.4792 0H23.2352Z" fill="#8D8D8D"/>
</svg>
